<svg height="511pt" viewBox="0 0 511.99971 511" width="511pt" xmlns="http://www.w3.org/2000/svg" fill="#777">
    <path d="m508.265625 365.621094-105.203125-120c-5.988281-6.828125-16.636719-6.820313-22.621094 0l-105.203125 120c-8.484375 9.683594-1.570312 24.878906 11.3125 24.878906h30.058594v105c0 8.285156 6.730469 15 15.027344 15h120.230469c8.300781 0 15.03125-6.714844 15.03125-15v-105h30.058593c12.898438 0 19.785157-15.207031 11.308594-24.878906zm0 0" />
    <path d="m271.523438.5h-150.289063v150h150.289063zm-30.058594 105c0 8.285156-6.730469 15-15.03125 15-8.296875 0-15.027344-6.714844-15.027344-15v-30c0-8.285156 6.730469-15 15.027344-15 8.300781 0 15.03125 6.714844 15.03125 15zm0 0" />
    <path d="m357.820312 225.867188c17.964844-20.484376 49.914063-20.472657 67.863282-.003907l26.183594 29.871094v-160.234375c0-3.980469-1.582032-7.792969-4.398438-10.605469l-80.15625-80c-2.816406-2.816406-6.640625-4.394531-10.625-4.394531h-55.109375v165c0 8.285156-6.726563 15-15.027344 15h-180.347656c-8.300781 0-15.027344-6.714844-15.027344-15v-165h-36.070312c-30.386719 0-55.105469 24.671875-55.105469 55v341c0 30.328125 24.71875 55 55.105469 55h36.070312v-196c0-8.285156 6.726563-15 15.027344-15h238.789063zm0 0" />
    <path d="m243.972656 390.273438c-1.9375.328124 3.679688.226562-77.652344.226562-8.300781 0-15.03125-6.714844-15.03125-15s6.730469-15 15.03125-15c81.347657 0 75.71875-.101562 77.664063.226562 3.578125-10.3125 8.03125-14.171874 22.109375-30.226562h-99.773438c-8.300781 0-15.03125-6.714844-15.03125-15s6.730469-15 15.03125-15h104.199219c6.222657 0 11.5625 3.773438 13.84375 9.15625l34.328125-39.15625h-197.457031v181h165.316406v-31c-18.949219 0-36.226562-11.964844-42.578125-30.226562zm0 0" /></svg>