<svg height="512pt" viewBox="0 0 512 512" width="512pt" xmlns="http://www.w3.org/2000/svg" fill="#e67e22">
    <path d="m492 0h-472c-11.046875 0-20 8.953125-20 20v472c0 11.046875 8.953125 20 20 20h472c11.046875 0 20-8.953125 20-20v-472c0-11.046875-8.953125-20-20-20zm-20 472h-432v-123.714844l140-140 221.859375 221.855469c7.808594 7.8125 20.472656 7.8125 28.28125 0 7.8125-7.808594 7.8125-20.472656 0-28.28125l-103.855469-103.859375 49.714844-49.714844 96 96zm0-184.285156-81.859375-81.855469c-7.808594-7.8125-20.472656-7.8125-28.28125 0l-63.859375 63.855469-103.859375-103.855469c-7.808594-7.8125-20.472656-7.8125-28.28125 0l-125.859375 125.855469v-251.714844h432zm-176-102.546875c30.097656 0 54.582031-24.488281 54.582031-54.582031 0-30.101563-24.484375-54.585938-54.582031-54.585938s-54.582031 24.484375-54.582031 54.582031c0 30.097657 24.484375 54.585938 54.582031 54.585938zm0-69.167969c8.042969 0 14.582031 6.542969 14.582031 14.582031 0 8.042969-6.542969 14.582031-14.582031 14.582031s-14.582031-6.539062-14.582031-14.582031c0-8.039062 6.539062-14.582031 14.582031-14.582031zm0 0" /></svg>