<svg height="512pt" viewBox="0 0 512 512" width="512pt" xmlns="http://www.w3.org/2000/svg" fill="#e67e22">
    <path d="m297 190h200c8.285156 0 15-6.714844 15-15v-120c0-8.285156-6.714844-15-15-15h-90.730469l-15.855469-31.707031c-2.539062-5.082031-7.730468-8.292969-13.414062-8.292969h-80c-8.285156 0-15 6.714844-15 15v54.101562l-130.550781 111.898438h-27.179688l-15.855469-31.707031c-2.539062-5.082031-7.730468-8.292969-13.414062-8.292969h-80c-8.285156 0-15 6.714844-15 15v160c0 8.285156 6.714844 15 15 15h136.449219l130.550781 111.898438v54.101562c0 8.285156 6.714844 15 15 15h200c8.285156 0 15-6.714844 15-15v-120c0-8.285156-6.714844-15-15-15h-90.730469l-15.851562-31.707031c-2.542969-5.082031-7.734375-8.292969-13.417969-8.292969h-80c-8.285156 0-15 6.714844-15 15v66.386719l-84.449219-72.386719h17.449219c8.285156 0 15-6.714844 15-15v-120c0-8.285156-6.714844-15-15-15h-17.449219l84.449219-72.386719v66.386719c0 8.285156 6.714844 15 15 15zm0 0" /></svg>